<mxfile host="app.diagrams.net" agent="Mozilla/5.0 (Windows NT 10.0; Win64; x64) AppleWebKit/537.36 (KHTML, like Gecko) Chrome/136.0.0.0 Safari/537.36" version="26.2.14">
  <diagram name="Page-1" id="5d7acffa-a066-3a61-03fe-96351882024d">
    <mxGraphModel dx="1188" dy="1481" grid="1" gridSize="10" guides="1" tooltips="1" connect="1" arrows="1" fold="1" page="1" pageScale="1" pageWidth="1100" pageHeight="850" background="#ffffff" math="0" shadow="0">
      <root>
        <mxCell id="0" />
        <mxCell id="1" parent="0" />
        <mxCell id="xmjtnQLuZ0wsoHKwBJXM-13" style="edgeStyle=orthogonalEdgeStyle;rounded=0;orthogonalLoop=1;jettySize=auto;html=1;exitX=0;exitY=1;exitDx=0;exitDy=0;entryX=1;entryY=1;entryDx=0;entryDy=0;" parent="1" source="oswEJORsg2sLKd22r_RM-8" target="oswEJORsg2sLKd22r_RM-20" edge="1">
          <mxGeometry relative="1" as="geometry">
            <Array as="points">
              <mxPoint x="450" y="520" />
              <mxPoint x="375" y="520" />
              <mxPoint x="375" y="518" />
            </Array>
          </mxGeometry>
        </mxCell>
        <mxCell id="xmjtnQLuZ0wsoHKwBJXM-14" value="Menetrend" style="edgeLabel;html=1;align=center;verticalAlign=middle;resizable=0;points=[];" parent="xmjtnQLuZ0wsoHKwBJXM-13" vertex="1" connectable="0">
          <mxGeometry x="0.0156" relative="1" as="geometry">
            <mxPoint as="offset" />
          </mxGeometry>
        </mxCell>
        <mxCell id="hf9hc3oFMKBgTjrXvcez-30" value="" style="edgeStyle=orthogonalEdgeStyle;rounded=0;orthogonalLoop=1;jettySize=auto;html=1;entryX=1;entryY=0;entryDx=0;entryDy=0;" edge="1" parent="1" source="oswEJORsg2sLKd22r_RM-8" target="hf9hc3oFMKBgTjrXvcez-27">
          <mxGeometry relative="1" as="geometry">
            <Array as="points">
              <mxPoint x="540" y="537" />
            </Array>
          </mxGeometry>
        </mxCell>
        <mxCell id="oswEJORsg2sLKd22r_RM-8" value="&lt;p style=&quot;margin: 4px 0px 0px;&quot;&gt;&lt;b&gt;&amp;nbsp;4&amp;nbsp; &amp;nbsp; &amp;nbsp; Kereső felület&lt;/b&gt;&lt;/p&gt;&lt;hr size=&quot;1&quot; style=&quot;border-style:solid;&quot;&gt;&lt;div style=&quot;height:2px;&quot;&gt;&amp;nbsp;Menetrend megtekintése&lt;/div&gt;" style="verticalAlign=top;align=left;overflow=fill;html=1;whiteSpace=wrap;" parent="1" vertex="1">
          <mxGeometry x="450" y="425" width="180" height="100" as="geometry" />
        </mxCell>
        <mxCell id="oswEJORsg2sLKd22r_RM-63" style="edgeStyle=orthogonalEdgeStyle;rounded=0;orthogonalLoop=1;jettySize=auto;html=1;exitX=1;exitY=0.5;exitDx=0;exitDy=0;startArrow=classic;startFill=1;" parent="1" source="oswEJORsg2sLKd22r_RM-9" target="oswEJORsg2sLKd22r_RM-62" edge="1">
          <mxGeometry relative="1" as="geometry" />
        </mxCell>
        <mxCell id="oswEJORsg2sLKd22r_RM-9" value="&lt;p style=&quot;margin: 4px 0px 0px;&quot;&gt;&lt;b&gt;&amp;nbsp;2&amp;nbsp; &amp;nbsp; &amp;nbsp; Regisztrációs felület&lt;/b&gt;&lt;/p&gt;&lt;hr size=&quot;1&quot; style=&quot;border-style:solid;&quot;&gt;&lt;div style=&quot;height:2px;&quot;&gt;&amp;nbsp;Regisztráció&lt;/div&gt;" style="verticalAlign=top;align=left;overflow=fill;html=1;whiteSpace=wrap;" parent="1" vertex="1">
          <mxGeometry x="450" y="150" width="180" height="100" as="geometry" />
        </mxCell>
        <mxCell id="oswEJORsg2sLKd22r_RM-10" value="&lt;p style=&quot;margin: 4px 0px 0px;&quot;&gt;&lt;b&gt;&amp;nbsp;3&amp;nbsp; &amp;nbsp; &amp;nbsp; Bejelentkezési felület&lt;/b&gt;&lt;/p&gt;&lt;hr size=&quot;1&quot; style=&quot;border-style:solid;&quot;&gt;&lt;div style=&quot;height:2px;&quot;&gt;&amp;nbsp;Bejelentkezés&lt;/div&gt;" style="verticalAlign=top;align=left;overflow=fill;html=1;whiteSpace=wrap;" parent="1" vertex="1">
          <mxGeometry x="450" y="290" width="180" height="100" as="geometry" />
        </mxCell>
        <mxCell id="oswEJORsg2sLKd22r_RM-80" style="edgeStyle=orthogonalEdgeStyle;rounded=0;orthogonalLoop=1;jettySize=auto;html=1;exitX=0;exitY=0.75;exitDx=0;exitDy=0;entryX=1;entryY=1;entryDx=0;entryDy=0;" parent="1" source="oswEJORsg2sLKd22r_RM-11" target="oswEJORsg2sLKd22r_RM-23" edge="1">
          <mxGeometry relative="1" as="geometry" />
        </mxCell>
        <mxCell id="oswEJORsg2sLKd22r_RM-81" value="Jegy" style="edgeLabel;html=1;align=center;verticalAlign=middle;resizable=0;points=[];" parent="oswEJORsg2sLKd22r_RM-80" vertex="1" connectable="0">
          <mxGeometry x="0.0311" relative="1" as="geometry">
            <mxPoint x="-9" y="7" as="offset" />
          </mxGeometry>
        </mxCell>
        <mxCell id="oswEJORsg2sLKd22r_RM-11" value="&lt;p style=&quot;margin: 4px 0px 0px;&quot;&gt;&lt;b&gt;&amp;nbsp;5&amp;nbsp; &amp;nbsp; &amp;nbsp; Vásárlási felület&lt;/b&gt;&lt;/p&gt;&lt;hr size=&quot;1&quot; style=&quot;border-style:solid;&quot;&gt;&lt;div style=&quot;height:2px;&quot;&gt;&amp;nbsp;Jegy vásárlás&lt;span style=&quot;color: rgba(0, 0, 0, 0); font-family: monospace; font-size: 0px; text-wrap-mode: nowrap; background-color: initial;&quot;&gt;%3CmxGraphModel%3E%3Croot%3E%3CmxCell%20id%3D%220%22%2F%3E%3CmxCell%20id%3D%221%22%20parent%3D%220%22%2F%3E%3CmxCell%20id%3D%222%22%20value%3D%22%26lt%3Bp%20style%3D%26quot%3Bmargin%3A0px%3Bmargin-top%3A4px%3Btext-align%3Acenter%3B%26quot%3B%26gt%3B%26lt%3Bb%26gt%3BClass%26lt%3B%2Fb%26gt%3B%26lt%3B%2Fp%26gt%3B%26lt%3Bhr%20size%3D%26quot%3B1%26quot%3B%20style%3D%26quot%3Bborder-style%3Asolid%3B%26quot%3B%26gt%3B%26lt%3Bdiv%20style%3D%26quot%3Bheight%3A2px%3B%26quot%3B%26gt%3B%26amp%3Bnbsp%3BMenetrend%20megtekint%C3%A9se%26lt%3B%2Fdiv%26gt%3B%22%20style%3D%22verticalAlign%3Dtop%3Balign%3Dleft%3Boverflow%3Dfill%3Bhtml%3D1%3BwhiteSpace%3Dwrap%3B%22%20vertex%3D%221%22%20parent%3D%221%22%3E%3CmxGeometry%20x%3D%22450%22%20y%3D%22120%22%20width%3D%22180%22%20height%3D%22100%22%20as%3D%22geometry%22%2F%3E%3C%2FmxCell%3E%3CmxCell%20id%3D%223%22%20value%3D%22%26lt%3Bp%20style%3D%26quot%3Bmargin%3A0px%3Bmargin-top%3A4px%3Btext-align%3Acenter%3B%26quot%3B%26gt%3B%26lt%3Bb%26gt%3BClass%26lt%3B%2Fb%26gt%3B%26lt%3B%2Fp%26gt%3B%26lt%3Bhr%20size%3D%26quot%3B1%26quot%3B%20style%3D%26quot%3Bborder-style%3Asolid%3B%26quot%3B%26gt%3B%26lt%3Bdiv%20style%3D%26quot%3Bheight%3A2px%3B%26quot%3B%26gt%3B%26amp%3Bnbsp%3BRegisztr%C3%A1ci%C3%B3%26lt%3B%2Fdiv%26gt%3B%22%20style%3D%22verticalAlign%3Dtop%3Balign%3Dleft%3Boverflow%3Dfill%3Bhtml%3D1%3BwhiteSpace%3Dwrap%3B%22%20vertex%3D%221%22%20parent%3D%221%22%3E%3CmxGeometry%20x%3D%22450%22%20y%3D%22270%22%20width%3D%22180%22%20height%3D%22100%22%20as%3D%22geometry%22%2F%3E%3C%2FmxCell%3E%3C%2Froot%3E%3C%2FmxGraphModel%3E&lt;/span&gt;&lt;span style=&quot;color: rgba(0, 0, 0, 0); font-family: monospace; font-size: 0px; text-wrap-mode: nowrap; background-color: initial;&quot;&gt;%3CmxGraphModel%3E%3Croot%3E%3CmxCell%20id%3D%220%22%2F%3E%3CmxCell%20id%3D%221%22%20parent%3D%220%22%2F%3E%3CmxCell%20id%3D%222%22%20value%3D%22%26lt%3Bp%20style%3D%26quot%3Bmargin%3A0px%3Bmargin-top%3A4px%3Btext-align%3Acenter%3B%26quot%3B%26gt%3B%26lt%3Bb%26gt%3BClass%26lt%3B%2Fb%26gt%3B%26lt%3B%2Fp%26gt%3B%26lt%3Bhr%20size%3D%26quot%3B1%26quot%3B%20style%3D%26quot%3Bborder-style%3Asolid%3B%26quot%3B%26gt%3B%26lt%3Bdiv%20style%3D%26quot%3Bheight%3A2px%3B%26quot%3B%26gt%3B%26amp%3Bnbsp%3BMenetrend%20megtekint%C3%A9se%26lt%3B%2Fdiv%26gt%3B%22%20style%3D%22verticalAlign%3Dtop%3Balign%3Dleft%3Boverflow%3Dfill%3Bhtml%3D1%3BwhiteSpace%3Dwrap%3B%22%20vertex%3D%221%22%20parent%3D%221%22%3E%3CmxGeometry%20x%3D%22450%22%20y%3D%22120%22%20width%3D%22180%22%20height%3D%22100%22%20as%3D%22geometry%22%2F%3E%3C%2FmxCell%3E%3CmxCell%20id%3D%223%22%20value%3D%22%26lt%3Bp%20style%3D%26quot%3Bmargin%3A0px%3Bmargin-top%3A4px%3Btext-align%3Acenter%3B%26quot%3B%26gt%3B%26lt%3Bb%26gt%3BClass%26lt%3B%2Fb%26gt%3B%26lt%3B%2Fp%26gt%3B%26lt%3Bhr%20size%3D%26quot%3B1%26quot%3B%20style%3D%26quot%3Bborder-style%3Asolid%3B%26quot%3B%26gt%3B%26lt%3Bdiv%20style%3D%26quot%3Bheight%3A2px%3B%26quot%3B%26gt%3B%26amp%3Bnbsp%3BRegisztr%C3%A1ci%C3%B3%26lt%3B%2Fdiv%26gt%3B%22%20style%3D%22verticalAlign%3Dtop%3Balign%3Dleft%3Boverflow%3Dfill%3Bhtml%3D1%3BwhiteSpace%3Dwrap%3B%22%20vertex%3D%221%22%20parent%3D%221%22%3E%3CmxGeometry%20x%3D%22450%22%20y%3D%22270%22%20width%3D%22180%22%20height%3D%22100%22%20as%3D%22geometry%22%2F%3E%3C%2FmxCell%3E%3C%2Froot%3E%3C%2FmxGraphModel%3E&lt;/span&gt;&lt;/div&gt;" style="verticalAlign=top;align=left;overflow=fill;html=1;whiteSpace=wrap;" parent="1" vertex="1">
          <mxGeometry x="450" y="560" width="180" height="100" as="geometry" />
        </mxCell>
        <mxCell id="oswEJORsg2sLKd22r_RM-115" style="edgeStyle=orthogonalEdgeStyle;rounded=0;orthogonalLoop=1;jettySize=auto;html=1;exitX=0.905;exitY=1.011;exitDx=0;exitDy=0;entryX=0;entryY=0;entryDx=0;entryDy=0;startArrow=classic;startFill=1;exitPerimeter=0;" parent="1" source="oswEJORsg2sLKd22r_RM-12" target="oswEJORsg2sLKd22r_RM-77" edge="1">
          <mxGeometry relative="1" as="geometry">
            <Array as="points">
              <mxPoint x="613" y="950" />
              <mxPoint x="650" y="950" />
              <mxPoint x="650" y="1040" />
            </Array>
          </mxGeometry>
        </mxCell>
        <mxCell id="oswEJORsg2sLKd22r_RM-117" style="edgeStyle=orthogonalEdgeStyle;rounded=0;orthogonalLoop=1;jettySize=auto;html=1;exitX=1;exitY=0.75;exitDx=0;exitDy=0;entryX=0;entryY=0.5;entryDx=0;entryDy=0;startArrow=classic;startFill=1;" parent="1" source="oswEJORsg2sLKd22r_RM-12" target="oswEJORsg2sLKd22r_RM-116" edge="1">
          <mxGeometry relative="1" as="geometry">
            <Array as="points">
              <mxPoint x="710" y="895" />
              <mxPoint x="710" y="870" />
            </Array>
          </mxGeometry>
        </mxCell>
        <mxCell id="oswEJORsg2sLKd22r_RM-12" value="&lt;p style=&quot;margin: 4px 0px 0px;&quot;&gt;&lt;b&gt;&amp;nbsp;7&amp;nbsp; &amp;nbsp; &amp;nbsp; Admin oldal&lt;/b&gt;&lt;/p&gt;&lt;hr size=&quot;1&quot; style=&quot;border-style:solid;&quot;&gt;&lt;div style=&quot;height:2px;&quot;&gt;&amp;nbsp;Városok, állomások, vonatok,&amp;nbsp; &amp;nbsp;jegyek, menetrendek, tagok kezelése&lt;span style=&quot;color: rgba(0, 0, 0, 0); font-family: monospace; font-size: 0px; text-wrap-mode: nowrap; background-color: initial;&quot;&gt;%3CmxGraphModel%3E%3Croot%3E%3CmxCell%20id%3D%220%22%2F%3E%3CmxCell%20id%3D%221%22%20parent%3D%220%22%2F%3E%3CmxCell%20id%3D%222%22%20value%3D%22%26lt%3Bp%20style%3D%26quot%3Bmargin%3A0px%3Bmargin-top%3A4px%3Btext-align%3Acenter%3B%26quot%3B%26gt%3B%26lt%3Bb%26gt%3BClass%26lt%3B%2Fb%26gt%3B%26lt%3B%2Fp%26gt%3B%26lt%3Bhr%20size%3D%26quot%3B1%26quot%3B%20style%3D%26quot%3Bborder-style%3Asolid%3B%26quot%3B%26gt%3B%26lt%3Bdiv%20style%3D%26quot%3Bheight%3A2px%3B%26quot%3B%26gt%3B%26amp%3Bnbsp%3BMenetrend%20megtekint%C3%A9se%26lt%3B%2Fdiv%26gt%3B%22%20style%3D%22verticalAlign%3Dtop%3Balign%3Dleft%3Boverflow%3Dfill%3Bhtml%3D1%3BwhiteSpace%3Dwrap%3B%22%20vertex%3D%221%22%20parent%3D%221%22%3E%3CmxGeometry%20x%3D%22450%22%20y%3D%22120%22%20width%3D%22180%22%20height%3D%22100%22%20as%3D%22geometry%22%2F%3E%3C%2FmxCell%3E%3CmxCell%20id%3D%223%22%20value%3D%22%26lt%3Bp%20style%3D%26quot%3Bmargin%3A0px%3Bmargin-top%3A4px%3Btext-align%3Acenter%3B%26quot%3B%26gt%3B%26lt%3Bb%26gt%3BClass%26lt%3B%2Fb%26gt%3B%26lt%3B%2Fp%26gt%3B%26lt%3Bhr%20size%3D%26quot%3B1%26quot%3B%20style%3D%26quot%3Bborder-style%3Asolid%3B%26quot%3B%26gt%3B%26lt%3Bdiv%20style%3D%26quot%3Bheight%3A2px%3B%26quot%3B%26gt%3B%26amp%3Bnbsp%3BRegisztr%C3%A1ci%C3%B3%26lt%3B%2Fdiv%26gt%3B%22%20style%3D%22verticalAlign%3Dtop%3Balign%3Dleft%3Boverflow%3Dfill%3Bhtml%3D1%3BwhiteSpace%3Dwrap%3B%22%20vertex%3D%221%22%20parent%3D%221%22%3E%3CmxGeometry%20x%3D%22450%22%20y%3D%22270%22%20width%3D%22180%22%20height%3D%22100%22%20as%3D%22geometry%22%2F%3E%3C%2FmxCell%3E%3C%2Froot%3E%3C%2FmxGraphModel%3E&lt;/span&gt;&lt;span style=&quot;color: rgba(0, 0, 0, 0); font-family: monospace; font-size: 0px; text-wrap-mode: nowrap; background-color: initial;&quot;&gt;%3CmxGraphModel%3E%3Croot%3E%3CmxCell%20id%3D%220%22%2F%3E%3CmxCell%20id%3D%221%22%20parent%3D%220%22%2F%3E%3CmxCell%20id%3D%222%22%20value%3D%22%26lt%3Bp%20style%3D%26quot%3Bmargin%3A0px%3Bmargin-top%3A4px%3Btext-align%3Acenter%3B%26quot%3B%26gt%3B%26lt%3Bb%26gt%3BClass%26lt%3B%2Fb%26gt%3B%26lt%3B%2Fp%26gt%3B%26lt%3Bhr%20size%3D%26quot%3B1%26quot%3B%20style%3D%26quot%3Bborder-style%3Asolid%3B%26quot%3B%26gt%3B%26lt%3Bdiv%20style%3D%26quot%3Bheight%3A2px%3B%26quot%3B%26gt%3B%26amp%3Bnbsp%3BMenetrend%20megtekint%C3%A9se%26lt%3B%2Fdiv%26gt%3B%22%20style%3D%22verticalAlign%3Dtop%3Balign%3Dleft%3Boverflow%3Dfill%3Bhtml%3D1%3BwhiteSpace%3Dwrap%3B%22%20vertex%3D%221%22%20parent%3D%221%22%3E%3CmxGeometry%20x%3D%22450%22%20y%3D%22120%22%20width%3D%22180%22%20height%3D%22100%22%20as%3D%22geometry%22%2F%3E%3C%2FmxCell%3E%3CmxCell%20id%3D%223%22%20value%3D%22%26lt%3Bp%20style%3D%26quot%3Bmargin%3A0px%3Bmargin-top%3A4px%3Btext-align%3Acenter%3B%26quot%3B%26gt%3B%26lt%3Bb%26gt%3BClass%26lt%3B%2Fb%26gt%3B%26lt%3B%2Fp%26gt%3B%26lt%3Bhr%20size%3D%26quot%3B1%26quot%3B%20style%3D%26quot%3Bborder-style%3Asolid%3B%26quot%3B%26gt%3B%26lt%3Bdiv%20style%3D%26quot%3Bheight%3A2px%3B%26quot%3B%26gt%3B%26amp%3Bnbsp%3BRegisztr%C3%A1ci%C3%B3%26lt%3B%2Fdiv%26gt%3B%22%20style%3D%22verticalAlign%3Dtop%3Balign%3Dleft%3Boverflow%3Dfill%3Bhtml%3D1%3BwhiteSpace%3Dwrap%3B%22%20vertex%3D%221%22%20parent%3D%221%22%3E%3CmxGeometry%20x%3D%22450%22%20y%3D%22270%22%20width%3D%22180%22%20height%3D%22100%22%20as%3D%22geometry%22%2F%3E%3C%2FmxCell%3E%3C%2Froot%3E%3C%2FmxGraphModel%3&lt;/span&gt;&lt;/div&gt;" style="verticalAlign=top;align=left;overflow=fill;html=1;whiteSpace=wrap;" parent="1" vertex="1">
          <mxGeometry x="450" y="820" width="180" height="100" as="geometry" />
        </mxCell>
        <mxCell id="oswEJORsg2sLKd22r_RM-16" style="edgeStyle=orthogonalEdgeStyle;rounded=0;orthogonalLoop=1;jettySize=auto;html=1;exitX=1;exitY=0.5;exitDx=0;exitDy=0;entryX=0;entryY=0.5;entryDx=0;entryDy=0;" parent="1" source="oswEJORsg2sLKd22r_RM-15" target="oswEJORsg2sLKd22r_RM-9" edge="1">
          <mxGeometry relative="1" as="geometry" />
        </mxCell>
        <mxCell id="oswEJORsg2sLKd22r_RM-31" value="Név, jelszó, email" style="edgeLabel;html=1;align=center;verticalAlign=middle;resizable=0;points=[];" parent="oswEJORsg2sLKd22r_RM-16" vertex="1" connectable="0">
          <mxGeometry x="-0.188" y="1" relative="1" as="geometry">
            <mxPoint x="9" y="-9" as="offset" />
          </mxGeometry>
        </mxCell>
        <mxCell id="oswEJORsg2sLKd22r_RM-15" value="Látogató" style="shape=ellipse;html=1;dashed=0;whiteSpace=wrap;perimeter=ellipsePerimeter;" parent="1" vertex="1">
          <mxGeometry x="200" y="175" width="100" height="50" as="geometry" />
        </mxCell>
        <mxCell id="oswEJORsg2sLKd22r_RM-18" style="edgeStyle=orthogonalEdgeStyle;rounded=0;orthogonalLoop=1;jettySize=auto;html=1;exitX=1;exitY=0.5;exitDx=0;exitDy=0;" parent="1" source="oswEJORsg2sLKd22r_RM-17" target="oswEJORsg2sLKd22r_RM-10" edge="1">
          <mxGeometry relative="1" as="geometry" />
        </mxCell>
        <mxCell id="oswEJORsg2sLKd22r_RM-32" value="email, jelszó" style="edgeLabel;html=1;align=center;verticalAlign=middle;resizable=0;points=[];" parent="oswEJORsg2sLKd22r_RM-18" vertex="1" connectable="0">
          <mxGeometry x="-0.0961" y="1" relative="1" as="geometry">
            <mxPoint y="-9" as="offset" />
          </mxGeometry>
        </mxCell>
        <mxCell id="oswEJORsg2sLKd22r_RM-17" value="Látogató" style="shape=ellipse;html=1;dashed=0;whiteSpace=wrap;perimeter=ellipsePerimeter;" parent="1" vertex="1">
          <mxGeometry x="200" y="315" width="100" height="50" as="geometry" />
        </mxCell>
        <mxCell id="oswEJORsg2sLKd22r_RM-21" style="edgeStyle=orthogonalEdgeStyle;rounded=0;orthogonalLoop=1;jettySize=auto;html=1;exitX=1;exitY=0.5;exitDx=0;exitDy=0;entryX=0;entryY=0.25;entryDx=0;entryDy=0;" parent="1" source="oswEJORsg2sLKd22r_RM-19" target="oswEJORsg2sLKd22r_RM-8" edge="1">
          <mxGeometry relative="1" as="geometry" />
        </mxCell>
        <mxCell id="oswEJORsg2sLKd22r_RM-33" value="Honnan, hova" style="edgeLabel;html=1;align=center;verticalAlign=middle;resizable=0;points=[];" parent="oswEJORsg2sLKd22r_RM-21" vertex="1" connectable="0">
          <mxGeometry x="-0.0424" y="-3" relative="1" as="geometry">
            <mxPoint y="-14" as="offset" />
          </mxGeometry>
        </mxCell>
        <mxCell id="oswEJORsg2sLKd22r_RM-19" value="Látogató" style="shape=ellipse;html=1;dashed=0;whiteSpace=wrap;perimeter=ellipsePerimeter;" parent="1" vertex="1">
          <mxGeometry x="200" y="410" width="100" height="50" as="geometry" />
        </mxCell>
        <mxCell id="oswEJORsg2sLKd22r_RM-22" style="edgeStyle=orthogonalEdgeStyle;rounded=0;orthogonalLoop=1;jettySize=auto;html=1;exitX=1;exitY=0.5;exitDx=0;exitDy=0;entryX=0;entryY=0.75;entryDx=0;entryDy=0;" parent="1" source="oswEJORsg2sLKd22r_RM-20" target="oswEJORsg2sLKd22r_RM-8" edge="1">
          <mxGeometry relative="1" as="geometry" />
        </mxCell>
        <mxCell id="oswEJORsg2sLKd22r_RM-34" value="Honnan, hova" style="edgeLabel;html=1;align=center;verticalAlign=middle;resizable=0;points=[];" parent="oswEJORsg2sLKd22r_RM-22" vertex="1" connectable="0">
          <mxGeometry x="-0.1511" y="1" relative="1" as="geometry">
            <mxPoint x="7" y="-9" as="offset" />
          </mxGeometry>
        </mxCell>
        <mxCell id="oswEJORsg2sLKd22r_RM-20" value="Tag" style="shape=ellipse;html=1;dashed=0;whiteSpace=wrap;perimeter=ellipsePerimeter;" parent="1" vertex="1">
          <mxGeometry x="200" y="475" width="100" height="50" as="geometry" />
        </mxCell>
        <mxCell id="oswEJORsg2sLKd22r_RM-25" style="edgeStyle=orthogonalEdgeStyle;rounded=0;orthogonalLoop=1;jettySize=auto;html=1;exitX=1;exitY=0.5;exitDx=0;exitDy=0;entryX=0;entryY=0.5;entryDx=0;entryDy=0;" parent="1" source="oswEJORsg2sLKd22r_RM-23" target="oswEJORsg2sLKd22r_RM-11" edge="1">
          <mxGeometry relative="1" as="geometry" />
        </mxCell>
        <mxCell id="oswEJORsg2sLKd22r_RM-79" value="Tranzakció" style="edgeLabel;html=1;align=center;verticalAlign=middle;resizable=0;points=[];" parent="oswEJORsg2sLKd22r_RM-25" vertex="1" connectable="0">
          <mxGeometry x="-0.0511" y="1" relative="1" as="geometry">
            <mxPoint y="-14" as="offset" />
          </mxGeometry>
        </mxCell>
        <mxCell id="oswEJORsg2sLKd22r_RM-23" value="Tag" style="shape=ellipse;html=1;dashed=0;whiteSpace=wrap;perimeter=ellipsePerimeter;" parent="1" vertex="1">
          <mxGeometry x="200" y="585" width="100" height="50" as="geometry" />
        </mxCell>
        <mxCell id="oswEJORsg2sLKd22r_RM-26" style="edgeStyle=orthogonalEdgeStyle;rounded=0;orthogonalLoop=1;jettySize=auto;html=1;exitX=1;exitY=0.5;exitDx=0;exitDy=0;entryX=0;entryY=0.5;entryDx=0;entryDy=0;" parent="1" source="oswEJORsg2sLKd22r_RM-24" target="oswEJORsg2sLKd22r_RM-12" edge="1">
          <mxGeometry relative="1" as="geometry" />
        </mxCell>
        <mxCell id="oswEJORsg2sLKd22r_RM-41" value="Módosított adatok" style="edgeLabel;html=1;align=center;verticalAlign=middle;resizable=0;points=[];" parent="oswEJORsg2sLKd22r_RM-26" vertex="1" connectable="0">
          <mxGeometry x="-0.0956" y="2" relative="1" as="geometry">
            <mxPoint y="-8" as="offset" />
          </mxGeometry>
        </mxCell>
        <mxCell id="oswEJORsg2sLKd22r_RM-24" value="Admin" style="shape=ellipse;html=1;dashed=0;whiteSpace=wrap;perimeter=ellipsePerimeter;" parent="1" vertex="1">
          <mxGeometry x="200" y="845" width="100" height="50" as="geometry" />
        </mxCell>
        <mxCell id="oswEJORsg2sLKd22r_RM-38" style="edgeStyle=orthogonalEdgeStyle;rounded=0;orthogonalLoop=1;jettySize=auto;html=1;exitX=0;exitY=0.75;exitDx=0;exitDy=0;entryX=1;entryY=1;entryDx=0;entryDy=0;" parent="1" source="oswEJORsg2sLKd22r_RM-27" target="oswEJORsg2sLKd22r_RM-29" edge="1">
          <mxGeometry relative="1" as="geometry" />
        </mxCell>
        <mxCell id="oswEJORsg2sLKd22r_RM-39" value="Statisztika" style="edgeLabel;html=1;align=center;verticalAlign=middle;resizable=0;points=[];" parent="oswEJORsg2sLKd22r_RM-38" vertex="1" connectable="0">
          <mxGeometry x="-0.0871" y="1" relative="1" as="geometry">
            <mxPoint x="-4" y="19" as="offset" />
          </mxGeometry>
        </mxCell>
        <mxCell id="oswEJORsg2sLKd22r_RM-78" style="edgeStyle=orthogonalEdgeStyle;rounded=0;orthogonalLoop=1;jettySize=auto;html=1;exitX=1.016;exitY=0.956;exitDx=0;exitDy=0;entryX=0;entryY=0.5;entryDx=0;entryDy=0;startArrow=classic;startFill=1;endArrow=none;exitPerimeter=0;" parent="1" source="oswEJORsg2sLKd22r_RM-27" target="oswEJORsg2sLKd22r_RM-77" edge="1">
          <mxGeometry relative="1" as="geometry" />
        </mxCell>
        <mxCell id="oswEJORsg2sLKd22r_RM-27" value="&lt;p style=&quot;margin: 4px 0px 0px;&quot;&gt;&lt;b&gt;&amp;nbsp;8&amp;nbsp; &amp;nbsp; &amp;nbsp; Statisztika felület&lt;/b&gt;&lt;/p&gt;&lt;hr size=&quot;1&quot; style=&quot;border-style:solid;&quot;&gt;&lt;div style=&quot;height:2px;&quot;&gt;&amp;nbsp;Statisztika készítése&lt;span style=&quot;color: rgba(0, 0, 0, 0); font-family: monospace; font-size: 0px; text-wrap-mode: nowrap; background-color: initial;&quot;&gt;%3CmxGraphModel%3E%3Croot%3E%3CmxCell%20id%3D%220%22%2F%3E%3CmxCell%20id%3D%221%22%20parent%3D%220%22%2F%3E%3CmxCell%20id%3D%222%22%20value%3D%22%26lt%3Bp%20style%3D%26quot%3Bmargin%3A0px%3Bmargin-top%3A4px%3Btext-align%3Acenter%3B%26quot%3B%26gt%3B%26lt%3Bb%26gt%3BClass%26lt%3B%2Fb%26gt%3B%26lt%3B%2Fp%26gt%3B%26lt%3Bhr%20size%3D%26quot%3B1%26quot%3B%20style%3D%26quot%3Bborder-style%3Asolid%3B%26quot%3B%26gt%3B%26lt%3Bdiv%20style%3D%26quot%3Bheight%3A2px%3B%26quot%3B%26gt%3B%26amp%3Bnbsp%3BMenetrend%20megtekint%C3%A9se%26lt%3B%2Fdiv%26gt%3B%22%20style%3D%22verticalAlign%3Dtop%3Balign%3Dleft%3Boverflow%3Dfill%3Bhtml%3D1%3BwhiteSpace%3Dwrap%3B%22%20vertex%3D%221%22%20parent%3D%221%22%3E%3CmxGeometry%20x%3D%22450%22%20y%3D%22120%22%20width%3D%22180%22%20height%3D%22100%22%20as%3D%22geometry%22%2F%3E%3C%2FmxCell%3E%3CmxCell%20id%3D%223%22%20value%3D%22%26lt%3Bp%20style%3D%26quot%3Bmargin%3A0px%3Bmargin-top%3A4px%3Btext-align%3Acenter%3B%26quot%3B%26gt%3B%26lt%3Bb%26gt%3BClass%26lt%3B%2Fb%26gt%3B%26lt%3B%2Fp%26gt%3B%26lt%3Bhr%20size%3D%26quot%3B1%26quot%3B%20style%3D%26quot%3Bborder-style%3Asolid%3B%26quot%3B%26gt%3B%26lt%3Bdiv%20style%3D%26quot%3Bheight%3A2px%3B%26quot%3B%26gt%3B%26amp%3Bnbsp%3BRegisztr%C3%A1ci%C3%B3%26lt%3B%2Fdiv%26gt%3B%22%20style%3D%22verticalAlign%3Dtop%3Balign%3Dleft%3Boverflow%3Dfill%3Bhtml%3D1%3BwhiteSpace%3Dwrap%3B%22%20vertex%3D%221%22%20parent%3D%221%22%3E%3CmxGeometry%20x%3D%22450%22%20y%3D%22270%22%20width%3D%22180%22%20height%3D%22100%22%20as%3D%22geometry%22%2F%3E%3C%2FmxCell%3E%3C%2Froot%3E%3C%2FmxGraphModel%3E&lt;/span&gt;&lt;span style=&quot;color: rgba(0, 0, 0, 0); font-family: monospace; font-size: 0px; text-wrap-mode: nowrap; background-color: initial;&quot;&gt;%3CmxGraphModel%3E%3Croot%3E%3CmxCell%20id%3D%220%22%2F%3E%3CmxCell%20id%3D%221%22%20parent%3D%220%22%2F%3E%3CmxCell%20id%3D%222%22%20value%3D%22%26lt%3Bp%20style%3D%26quot%3Bmargin%3A0px%3Bmargin-top%3A4px%3Btext-align%3Acenter%3B%26quot%3B%26gt%3B%26lt%3Bb%26gt%3BClass%26lt%3B%2Fb%26gt%3B%26lt%3B%2Fp%26gt%3B%26lt%3Bhr%20size%3D%26quot%3B1%26quot%3B%20style%3D%26quot%3Bborder-style%3Asolid%3B%26quot%3B%26gt%3B%26lt%3Bdiv%20style%3D%26quot%3Bheight%3A2px%3B%26quot%3B%26gt%3B%26amp%3Bnbsp%3BMenetrend%20megtekint%C3%A9se%26lt%3B%2Fdiv%26gt%3B%22%20style%3D%22verticalAlign%3Dtop%3Balign%3Dleft%3Boverflow%3Dfill%3Bhtml%3D1%3BwhiteSpace%3Dwrap%3B%22%20vertex%3D%221%22%20parent%3D%221%22%3E%3CmxGeometry%20x%3D%22450%22%20y%3D%22120%22%20width%3D%22180%22%20height%3D%22100%22%20as%3D%22geometry%22%2F%3E%3C%2FmxCell%3E%3CmxCell%20id%3D%223%22%20value%3D%22%26lt%3Bp%20style%3D%26quot%3Bmargin%3A0px%3Bmargin-top%3A4px%3Btext-align%3Acenter%3B%26quot%3B%26gt%3B%26lt%3Bb%26gt%3BClass%26lt%3B%2Fb%26gt%3B%26lt%3B%2Fp%26gt%3B%26lt%3Bhr%20size%3D%26quot%3B1%26quot%3B%20style%3D%26quot%3Bborder-style%3Asolid%3B%26quot%3B%26gt%3B%26lt%3Bdiv%20style%3D%26quot%3Bheight%3A2px%3B%26quot%3B%26gt%3B%26amp%3Bnbsp%3BRegisztr%C3%A1ci%C3%B3%26lt%3B%2Fdiv%26gt%3B%22%20style%3D%22verticalAlign%3Dtop%3Balign%3Dleft%3Boverflow%3Dfill%3Bhtml%3D1%3BwhiteSpace%3Dwrap%3B%22%20vertex%3D%221%22%20parent%3D%221%22%3E%3CmxGeometry%20x%3D%22450%22%20y%3D%22270%22%20width%3D%22180%22%20height%3D%22100%22%20as%3D%22geometry%22%2F%3E%3C%2FmxCell%3E%3C%2Froot%3E%3C%2FmxGraphModel%3&lt;/span&gt;&lt;/div&gt;" style="verticalAlign=top;align=left;overflow=fill;html=1;whiteSpace=wrap;" parent="1" vertex="1">
          <mxGeometry x="450" y="960" width="180" height="100" as="geometry" />
        </mxCell>
        <mxCell id="oswEJORsg2sLKd22r_RM-36" style="edgeStyle=orthogonalEdgeStyle;rounded=0;orthogonalLoop=1;jettySize=auto;html=1;exitX=1;exitY=0;exitDx=0;exitDy=0;entryX=0;entryY=0.25;entryDx=0;entryDy=0;" parent="1" source="oswEJORsg2sLKd22r_RM-29" target="oswEJORsg2sLKd22r_RM-27" edge="1">
          <mxGeometry relative="1" as="geometry" />
        </mxCell>
        <mxCell id="oswEJORsg2sLKd22r_RM-37" value="Lekérés" style="edgeLabel;html=1;align=center;verticalAlign=middle;resizable=0;points=[];" parent="oswEJORsg2sLKd22r_RM-36" vertex="1" connectable="0">
          <mxGeometry x="0.0619" y="1" relative="1" as="geometry">
            <mxPoint x="-24" y="-11" as="offset" />
          </mxGeometry>
        </mxCell>
        <mxCell id="oswEJORsg2sLKd22r_RM-29" value="Admin" style="shape=ellipse;html=1;dashed=0;whiteSpace=wrap;perimeter=ellipsePerimeter;" parent="1" vertex="1">
          <mxGeometry x="200" y="985" width="100" height="50" as="geometry" />
        </mxCell>
        <mxCell id="oswEJORsg2sLKd22r_RM-56" style="edgeStyle=orthogonalEdgeStyle;rounded=0;orthogonalLoop=1;jettySize=auto;html=1;exitX=0.007;exitY=0.423;exitDx=0;exitDy=0;entryX=1;entryY=1;entryDx=0;entryDy=0;exitPerimeter=0;" parent="1" source="oswEJORsg2sLKd22r_RM-42" target="oswEJORsg2sLKd22r_RM-43" edge="1">
          <mxGeometry relative="1" as="geometry">
            <Array as="points">
              <mxPoint x="285" y="52" />
              <mxPoint x="285" y="43" />
            </Array>
          </mxGeometry>
        </mxCell>
        <mxCell id="oswEJORsg2sLKd22r_RM-57" value="Állomás" style="edgeLabel;html=1;align=center;verticalAlign=middle;resizable=0;points=[];" parent="oswEJORsg2sLKd22r_RM-56" vertex="1" connectable="0">
          <mxGeometry x="0.0004" y="1" relative="1" as="geometry">
            <mxPoint x="2" y="6" as="offset" />
          </mxGeometry>
        </mxCell>
        <mxCell id="xmjtnQLuZ0wsoHKwBJXM-9" style="edgeStyle=orthogonalEdgeStyle;rounded=0;orthogonalLoop=1;jettySize=auto;html=1;exitX=0;exitY=1;exitDx=0;exitDy=0;entryX=1;entryY=1;entryDx=0;entryDy=0;" parent="1" source="oswEJORsg2sLKd22r_RM-42" target="oswEJORsg2sLKd22r_RM-44" edge="1">
          <mxGeometry relative="1" as="geometry">
            <Array as="points">
              <mxPoint x="450" y="100" />
              <mxPoint x="375" y="100" />
              <mxPoint x="375" y="113" />
            </Array>
          </mxGeometry>
        </mxCell>
        <mxCell id="xmjtnQLuZ0wsoHKwBJXM-10" value="Állomás" style="edgeLabel;html=1;align=center;verticalAlign=middle;resizable=0;points=[];" parent="xmjtnQLuZ0wsoHKwBJXM-9" vertex="1" connectable="0">
          <mxGeometry x="0.2119" relative="1" as="geometry">
            <mxPoint as="offset" />
          </mxGeometry>
        </mxCell>
        <mxCell id="hf9hc3oFMKBgTjrXvcez-17" value="" style="edgeStyle=orthogonalEdgeStyle;rounded=0;orthogonalLoop=1;jettySize=auto;html=1;entryX=0.725;entryY=0.981;entryDx=0;entryDy=0;entryPerimeter=0;" edge="1" parent="1" source="oswEJORsg2sLKd22r_RM-42" target="hf9hc3oFMKBgTjrXvcez-14">
          <mxGeometry relative="1" as="geometry">
            <Array as="points">
              <mxPoint x="540" y="140" />
              <mxPoint x="360" y="140" />
              <mxPoint x="360" y="160" />
              <mxPoint x="265" y="160" />
            </Array>
          </mxGeometry>
        </mxCell>
        <mxCell id="hf9hc3oFMKBgTjrXvcez-19" value="Állomás" style="edgeLabel;html=1;align=center;verticalAlign=middle;resizable=0;points=[];" vertex="1" connectable="0" parent="hf9hc3oFMKBgTjrXvcez-17">
          <mxGeometry x="0.5553" y="-2" relative="1" as="geometry">
            <mxPoint as="offset" />
          </mxGeometry>
        </mxCell>
        <mxCell id="oswEJORsg2sLKd22r_RM-42" value="&lt;p style=&quot;margin: 4px 0px 0px;&quot;&gt;&lt;b&gt;&amp;nbsp;1&amp;nbsp; &amp;nbsp; &amp;nbsp; Állomás felület&lt;/b&gt;&lt;/p&gt;&lt;hr size=&quot;1&quot; style=&quot;border-style:solid;&quot;&gt;&lt;div style=&quot;height:2px;&quot;&gt;&amp;nbsp;Állomás megtekintése&lt;/div&gt;" style="verticalAlign=top;align=left;overflow=fill;html=1;whiteSpace=wrap;" parent="1" vertex="1">
          <mxGeometry x="450" y="10" width="180" height="100" as="geometry" />
        </mxCell>
        <mxCell id="oswEJORsg2sLKd22r_RM-45" style="edgeStyle=orthogonalEdgeStyle;rounded=0;orthogonalLoop=1;jettySize=auto;html=1;exitX=1;exitY=0.5;exitDx=0;exitDy=0;" parent="1" source="oswEJORsg2sLKd22r_RM-43" edge="1">
          <mxGeometry relative="1" as="geometry">
            <mxPoint x="450" y="25" as="targetPoint" />
            <Array as="points">
              <mxPoint x="450" y="25" />
            </Array>
          </mxGeometry>
        </mxCell>
        <mxCell id="oswEJORsg2sLKd22r_RM-54" value="Állomás lekérdezése" style="edgeLabel;html=1;align=center;verticalAlign=middle;resizable=0;points=[];" parent="oswEJORsg2sLKd22r_RM-45" vertex="1" connectable="0">
          <mxGeometry x="-0.0685" y="-1" relative="1" as="geometry">
            <mxPoint y="-16" as="offset" />
          </mxGeometry>
        </mxCell>
        <mxCell id="oswEJORsg2sLKd22r_RM-43" value="Látogató" style="shape=ellipse;html=1;dashed=0;whiteSpace=wrap;perimeter=ellipsePerimeter;" parent="1" vertex="1">
          <mxGeometry x="200" y="-30" width="100" height="50" as="geometry" />
        </mxCell>
        <mxCell id="oswEJORsg2sLKd22r_RM-46" style="edgeStyle=orthogonalEdgeStyle;rounded=0;orthogonalLoop=1;jettySize=auto;html=1;exitX=1;exitY=0.5;exitDx=0;exitDy=0;entryX=0;entryY=0.75;entryDx=0;entryDy=0;" parent="1" edge="1">
          <mxGeometry relative="1" as="geometry">
            <Array as="points">
              <mxPoint x="280" y="85" />
              <mxPoint x="375" y="85" />
              <mxPoint x="375" y="90" />
            </Array>
            <mxPoint x="280" y="75" as="sourcePoint" />
            <mxPoint x="450" y="89.99999999999977" as="targetPoint" />
          </mxGeometry>
        </mxCell>
        <mxCell id="oswEJORsg2sLKd22r_RM-55" value="Állomás lekérdezése" style="edgeLabel;html=1;align=center;verticalAlign=middle;resizable=0;points=[];" parent="oswEJORsg2sLKd22r_RM-46" vertex="1" connectable="0">
          <mxGeometry x="0.006" y="2" relative="1" as="geometry">
            <mxPoint x="-13" y="7" as="offset" />
          </mxGeometry>
        </mxCell>
        <mxCell id="oswEJORsg2sLKd22r_RM-44" value="Tag" style="shape=ellipse;html=1;dashed=0;whiteSpace=wrap;perimeter=ellipsePerimeter;" parent="1" vertex="1">
          <mxGeometry x="180" y="45" width="100" height="50" as="geometry" />
        </mxCell>
        <mxCell id="oswEJORsg2sLKd22r_RM-72" style="edgeStyle=orthogonalEdgeStyle;rounded=0;orthogonalLoop=1;jettySize=auto;html=1;exitX=1;exitY=0.25;exitDx=0;exitDy=0;entryX=0;entryY=1;entryDx=0;entryDy=0;startArrow=classic;startFill=1;endArrow=none;" parent="1" source="oswEJORsg2sLKd22r_RM-47" target="oswEJORsg2sLKd22r_RM-69" edge="1">
          <mxGeometry relative="1" as="geometry">
            <Array as="points">
              <mxPoint x="740" y="715" />
            </Array>
          </mxGeometry>
        </mxCell>
        <mxCell id="xmjtnQLuZ0wsoHKwBJXM-17" style="edgeStyle=orthogonalEdgeStyle;rounded=0;orthogonalLoop=1;jettySize=auto;html=1;exitX=0;exitY=1;exitDx=0;exitDy=0;entryX=1;entryY=1;entryDx=0;entryDy=0;" parent="1" source="oswEJORsg2sLKd22r_RM-47" target="oswEJORsg2sLKd22r_RM-49" edge="1">
          <mxGeometry relative="1" as="geometry">
            <Array as="points">
              <mxPoint x="450" y="783" />
            </Array>
          </mxGeometry>
        </mxCell>
        <mxCell id="xmjtnQLuZ0wsoHKwBJXM-18" value="Jegy" style="edgeLabel;html=1;align=center;verticalAlign=middle;resizable=0;points=[];" parent="xmjtnQLuZ0wsoHKwBJXM-17" vertex="1" connectable="0">
          <mxGeometry x="0.035" y="-1" relative="1" as="geometry">
            <mxPoint as="offset" />
          </mxGeometry>
        </mxCell>
        <mxCell id="oswEJORsg2sLKd22r_RM-47" value="&lt;p style=&quot;margin: 4px 0px 0px;&quot;&gt;&lt;b&gt;&amp;nbsp;6&amp;nbsp; &amp;nbsp; &amp;nbsp; Profil oldal&lt;/b&gt;&lt;/p&gt;&lt;hr size=&quot;1&quot; style=&quot;border-style:solid;&quot;&gt;&lt;div style=&quot;height:2px;&quot;&gt;&amp;nbsp;Jegy megtekintése&lt;span style=&quot;color: rgba(0, 0, 0, 0); font-family: monospace; font-size: 0px; text-wrap-mode: nowrap; background-color: initial;&quot;&gt;%3CmxGraphModel%3E%3Croot%3E%3CmxCell%20id%3D%220%22%2F%3E%3CmxCell%20id%3D%221%22%20parent%3D%220%22%2F%3E%3CmxCell%20id%3D%222%22%20value%3D%22%26lt%3Bp%20style%3D%26quot%3Bmargin%3A0px%3Bmargin-top%3A4px%3Btext-align%3Acenter%3B%26quot%3B%26gt%3B%26lt%3Bb%26gt%3BClass%26lt%3B%2Fb%26gt%3B%26lt%3B%2Fp%26gt%3B%26lt%3Bhr%20size%3D%26quot%3B1%26quot%3B%20style%3D%26quot%3Bborder-style%3Asolid%3B%26quot%3B%26gt%3B%26lt%3Bdiv%20style%3D%26quot%3Bheight%3A2px%3B%26quot%3B%26gt%3B%26amp%3Bnbsp%3BMenetrend%20megtekint%C3%A9se%26lt%3B%2Fdiv%26gt%3B%22%20style%3D%22verticalAlign%3Dtop%3Balign%3Dleft%3Boverflow%3Dfill%3Bhtml%3D1%3BwhiteSpace%3Dwrap%3B%22%20vertex%3D%221%22%20parent%3D%221%22%3E%3CmxGeometry%20x%3D%22450%22%20y%3D%22120%22%20width%3D%22180%22%20height%3D%22100%22%20as%3D%22geometry%22%2F%3E%3C%2FmxCell%3E%3CmxCell%20id%3D%223%22%20value%3D%22%26lt%3Bp%20style%3D%26quot%3Bmargin%3A0px%3Bmargin-top%3A4px%3Btext-align%3Acenter%3B%26quot%3B%26gt%3B%26lt%3Bb%26gt%3BClass%26lt%3B%2Fb%26gt%3B%26lt%3B%2Fp%26gt%3B%26lt%3Bhr%20size%3D%26quot%3B1%26quot%3B%20style%3D%26quot%3Bborder-style%3Asolid%3B%26quot%3B%26gt%3B%26lt%3Bdiv%20style%3D%26quot%3Bheight%3A2px%3B%26quot%3B%26gt%3B%26amp%3Bnbsp%3BRegisztr%C3%A1ci%C3%B3%26lt%3B%2Fdiv%26gt%3B%22%20style%3D%22verticalAlign%3Dtop%3Balign%3Dleft%3Boverflow%3Dfill%3Bhtml%3D1%3BwhiteSpace%3Dwrap%3B%22%20vertex%3D%221%22%20parent%3D%221%22%3E%3CmxGeometry%20x%3D%22450%22%20y%3D%22270%22%20width%3D%22180%22%20height%3D%22100%22%20as%3D%22geometry%22%2F%3E%3C%2FmxCell%3E%3C%2Froot%3E%3C%2FmxGraphModel%3E&lt;/span&gt;&lt;span style=&quot;color: rgba(0, 0, 0, 0); font-family: monospace; font-size: 0px; text-wrap-mode: nowrap; background-color: initial;&quot;&gt;%3CmxGraphModel%3E%3Croot%3E%3CmxCell%20id%3D%220%22%2F%3E%3CmxCell%20id%3D%221%22%20parent%3D%220%22%2F%3E%3CmxCell%20id%3D%222%22%20value%3D%22%26lt%3Bp%20style%3D%26quot%3Bmargin%3A0px%3Bmargin-top%3A4px%3Btext-align%3Acenter%3B%26quot%3B%26gt%3B%26lt%3Bb%26gt%3BClass%26lt%3B%2Fb%26gt%3B%26lt%3B%2Fp%26gt%3B%26lt%3Bhr%20size%3D%26quot%3B1%26quot%3B%20style%3D%26quot%3Bborder-style%3Asolid%3B%26quot%3B%26gt%3B%26lt%3Bdiv%20style%3D%26quot%3Bheight%3A2px%3B%26quot%3B%26gt%3B%26amp%3Bnbsp%3BMenetrend%20megtekint%C3%A9se%26lt%3B%2Fdiv%26gt%3B%22%20style%3D%22verticalAlign%3Dtop%3Balign%3Dleft%3Boverflow%3Dfill%3Bhtml%3D1%3BwhiteSpace%3Dwrap%3B%22%20vertex%3D%221%22%20parent%3D%221%22%3E%3CmxGeometry%20x%3D%22450%22%20y%3D%22120%22%20width%3D%22180%22%20height%3D%22100%22%20as%3D%22geometry%22%2F%3E%3C%2FmxCell%3E%3CmxCell%20id%3D%223%22%20value%3D%22%26lt%3Bp%20style%3D%26quot%3Bmargin%3A0px%3Bmargin-top%3A4px%3Btext-align%3Acenter%3B%26quot%3B%26gt%3B%26lt%3Bb%26gt%3BClass%26lt%3B%2Fb%26gt%3B%26lt%3B%2Fp%26gt%3B%26lt%3Bhr%20size%3D%26quot%3B1%26quot%3B%20style%3D%26quot%3Bborder-style%3Asolid%3B%26quot%3B%26gt%3B%26lt%3Bdiv%20style%3D%26quot%3Bheight%3A2px%3B%26quot%3B%26gt%3B%26amp%3Bnbsp%3BRegisztr%C3%A1ci%C3%B3%26lt%3B%2Fdiv%26gt%3B%22%20style%3D%22verticalAlign%3Dtop%3Balign%3Dleft%3Boverflow%3Dfill%3Bhtml%3D1%3BwhiteSpace%3Dwrap%3B%22%20vertex%3D%221%22%20parent%3D%221%22%3E%3CmxGeometry%20x%3D%22450%22%20y%3D%22270%22%20width%3D%22180%22%20height%3D%22100%22%20as%3D%22geometry%22%2F%3E%3C%2FmxCell%3E%3C%2Froot%3E%3C%2FmxGraphModel%3E&lt;/span&gt;&lt;/div&gt;" style="verticalAlign=top;align=left;overflow=fill;html=1;whiteSpace=wrap;" parent="1" vertex="1">
          <mxGeometry x="450" y="690" width="180" height="100" as="geometry" />
        </mxCell>
        <mxCell id="oswEJORsg2sLKd22r_RM-50" style="edgeStyle=orthogonalEdgeStyle;rounded=0;orthogonalLoop=1;jettySize=auto;html=1;exitX=1;exitY=0.5;exitDx=0;exitDy=0;entryX=0;entryY=0.75;entryDx=0;entryDy=0;" parent="1" source="oswEJORsg2sLKd22r_RM-49" target="oswEJORsg2sLKd22r_RM-47" edge="1">
          <mxGeometry relative="1" as="geometry" />
        </mxCell>
        <mxCell id="oswEJORsg2sLKd22r_RM-53" value="Jegy lekérdezése" style="edgeLabel;html=1;align=center;verticalAlign=middle;resizable=0;points=[];" parent="oswEJORsg2sLKd22r_RM-50" vertex="1" connectable="0">
          <mxGeometry x="-0.188" y="1" relative="1" as="geometry">
            <mxPoint x="9" y="-4" as="offset" />
          </mxGeometry>
        </mxCell>
        <mxCell id="oswEJORsg2sLKd22r_RM-49" value="Tag" style="shape=ellipse;html=1;dashed=0;whiteSpace=wrap;perimeter=ellipsePerimeter;" parent="1" vertex="1">
          <mxGeometry x="200" y="740" width="100" height="50" as="geometry" />
        </mxCell>
        <mxCell id="oswEJORsg2sLKd22r_RM-61" style="edgeStyle=orthogonalEdgeStyle;rounded=0;orthogonalLoop=1;jettySize=auto;html=1;exitX=0;exitY=0.5;exitDx=0;exitDy=0;entryX=0.991;entryY=0.053;entryDx=0;entryDy=0;entryPerimeter=0;" parent="1" source="oswEJORsg2sLKd22r_RM-60" target="oswEJORsg2sLKd22r_RM-42" edge="1">
          <mxGeometry relative="1" as="geometry" />
        </mxCell>
        <mxCell id="oswEJORsg2sLKd22r_RM-60" value="D1&amp;nbsp; &amp;nbsp; &amp;nbsp;Állomások" style="html=1;dashed=0;whiteSpace=wrap;shape=mxgraph.dfd.dataStoreID;align=left;spacingLeft=3;points=[[0,0],[0.5,0],[1,0],[0,0.5],[1,0.5],[0,1],[0.5,1],[1,1]];" parent="1" vertex="1">
          <mxGeometry x="730" width="100" height="30" as="geometry" />
        </mxCell>
        <mxCell id="oswEJORsg2sLKd22r_RM-62" value="D2&amp;nbsp; &amp;nbsp; &amp;nbsp;Tagok" style="html=1;dashed=0;whiteSpace=wrap;shape=mxgraph.dfd.dataStoreID;align=left;spacingLeft=3;points=[[0,0],[0.5,0],[1,0],[0,0.5],[1,0.5],[0,1],[0.5,1],[1,1]];" parent="1" vertex="1">
          <mxGeometry x="740.9999999999999" y="185" width="100" height="30" as="geometry" />
        </mxCell>
        <mxCell id="oswEJORsg2sLKd22r_RM-64" style="edgeStyle=orthogonalEdgeStyle;rounded=0;orthogonalLoop=1;jettySize=auto;html=1;exitX=1;exitY=0.5;exitDx=0;exitDy=0;startArrow=classic;startFill=1;endArrow=none;endFill=0;" parent="1" target="oswEJORsg2sLKd22r_RM-65" edge="1">
          <mxGeometry relative="1" as="geometry">
            <mxPoint x="630" y="340" as="sourcePoint" />
          </mxGeometry>
        </mxCell>
        <mxCell id="oswEJORsg2sLKd22r_RM-65" value="D2&amp;nbsp; &amp;nbsp; &amp;nbsp;Tagok" style="html=1;dashed=0;whiteSpace=wrap;shape=mxgraph.dfd.dataStoreID;align=left;spacingLeft=3;points=[[0,0],[0.5,0],[1,0],[0,0.5],[1,0.5],[0,1],[0.5,1],[1,1]];" parent="1" vertex="1">
          <mxGeometry x="740.9999999999999" y="325" width="100" height="30" as="geometry" />
        </mxCell>
        <mxCell id="oswEJORsg2sLKd22r_RM-67" style="edgeStyle=orthogonalEdgeStyle;rounded=0;orthogonalLoop=1;jettySize=auto;html=1;exitX=0;exitY=0.5;exitDx=0;exitDy=0;entryX=1;entryY=0.5;entryDx=0;entryDy=0;startArrow=none;startFill=0;" parent="1" source="oswEJORsg2sLKd22r_RM-66" target="oswEJORsg2sLKd22r_RM-8" edge="1">
          <mxGeometry relative="1" as="geometry" />
        </mxCell>
        <mxCell id="oswEJORsg2sLKd22r_RM-66" value="D4&amp;nbsp; &amp;nbsp; &amp;nbsp;Járat" style="html=1;dashed=0;whiteSpace=wrap;shape=mxgraph.dfd.dataStoreID;align=left;spacingLeft=3;points=[[0,0],[0.5,0],[1,0],[0,0.5],[1,0.5],[0,1],[0.5,1],[1,1]];" parent="1" vertex="1">
          <mxGeometry x="740.9999999999999" y="485" width="100" height="30" as="geometry" />
        </mxCell>
        <mxCell id="oswEJORsg2sLKd22r_RM-68" value="D8&amp;nbsp; &amp;nbsp; &amp;nbsp;Kedvezmény" style="html=1;dashed=0;whiteSpace=wrap;shape=mxgraph.dfd.dataStoreID;align=left;spacingLeft=3;points=[[0,0],[0.5,0],[1,0],[0,0.5],[1,0.5],[0,1],[0.5,1],[1,1]];" parent="1" vertex="1">
          <mxGeometry x="740" y="561" width="109" height="30" as="geometry" />
        </mxCell>
        <mxCell id="oswEJORsg2sLKd22r_RM-70" style="edgeStyle=orthogonalEdgeStyle;rounded=0;orthogonalLoop=1;jettySize=auto;html=1;exitX=0;exitY=0.5;exitDx=0;exitDy=0;entryX=0.993;entryY=0.357;entryDx=0;entryDy=0;entryPerimeter=0;" parent="1" source="oswEJORsg2sLKd22r_RM-68" target="oswEJORsg2sLKd22r_RM-11" edge="1">
          <mxGeometry relative="1" as="geometry" />
        </mxCell>
        <mxCell id="oswEJORsg2sLKd22r_RM-71" style="edgeStyle=orthogonalEdgeStyle;rounded=0;orthogonalLoop=1;jettySize=auto;html=1;entryX=1.002;entryY=0.807;entryDx=0;entryDy=0;entryPerimeter=0;startArrow=classic;startFill=1;endArrow=none;" parent="1" source="oswEJORsg2sLKd22r_RM-69" target="oswEJORsg2sLKd22r_RM-11" edge="1">
          <mxGeometry relative="1" as="geometry">
            <mxPoint x="830" y="680" as="sourcePoint" />
            <Array as="points" />
          </mxGeometry>
        </mxCell>
        <mxCell id="oswEJORsg2sLKd22r_RM-76" style="edgeStyle=orthogonalEdgeStyle;rounded=0;orthogonalLoop=1;jettySize=auto;html=1;exitX=0;exitY=0.5;exitDx=0;exitDy=0;entryX=0.997;entryY=0.456;entryDx=0;entryDy=0;entryPerimeter=0;startArrow=classic;startFill=1;" parent="1" source="oswEJORsg2sLKd22r_RM-73" target="oswEJORsg2sLKd22r_RM-12" edge="1">
          <mxGeometry relative="1" as="geometry" />
        </mxCell>
        <mxCell id="oswEJORsg2sLKd22r_RM-73" value="D4&amp;nbsp; &amp;nbsp; &amp;nbsp;Járat" style="html=1;dashed=0;whiteSpace=wrap;shape=mxgraph.dfd.dataStoreID;align=left;spacingLeft=3;points=[[0,0],[0.5,0],[1,0],[0,0.5],[1,0.5],[0,1],[0.5,1],[1,1]];" parent="1" vertex="1">
          <mxGeometry x="740.9999999999999" y="780" width="100" height="30" as="geometry" />
        </mxCell>
        <mxCell id="oswEJORsg2sLKd22r_RM-75" style="edgeStyle=orthogonalEdgeStyle;rounded=0;orthogonalLoop=1;jettySize=auto;html=1;exitX=0;exitY=0.5;exitDx=0;exitDy=0;entryX=1;entryY=0.25;entryDx=0;entryDy=0;startArrow=classic;startFill=1;" parent="1" source="oswEJORsg2sLKd22r_RM-74" target="oswEJORsg2sLKd22r_RM-12" edge="1">
          <mxGeometry relative="1" as="geometry">
            <Array as="points">
              <mxPoint x="741" y="760" />
              <mxPoint x="660" y="760" />
              <mxPoint x="660" y="845" />
            </Array>
          </mxGeometry>
        </mxCell>
        <mxCell id="oswEJORsg2sLKd22r_RM-74" value="D1&amp;nbsp; &amp;nbsp; &amp;nbsp;Állomások" style="html=1;dashed=0;whiteSpace=wrap;shape=mxgraph.dfd.dataStoreID;align=left;spacingLeft=3;points=[[0,0],[0.5,0],[1,0],[0,0.5],[1,0.5],[0,1],[0.5,1],[1,1]];" parent="1" vertex="1">
          <mxGeometry x="741" y="740" width="100" height="30" as="geometry" />
        </mxCell>
        <mxCell id="oswEJORsg2sLKd22r_RM-77" value="D5&amp;nbsp; &amp;nbsp; Jegyek" style="html=1;dashed=0;whiteSpace=wrap;shape=mxgraph.dfd.dataStoreID;align=left;spacingLeft=3;points=[[0,0],[0.5,0],[1,0],[0,0.5],[1,0.5],[0,1],[0.5,1],[1,1]];" parent="1" vertex="1">
          <mxGeometry x="741" y="1040" width="100" height="30" as="geometry" />
        </mxCell>
        <mxCell id="oswEJORsg2sLKd22r_RM-85" value="" style="line;strokeWidth=1;direction=south;html=1;perimeter=backbonePerimeter;points=[];outlineConnect=0;" parent="1" vertex="1">
          <mxGeometry x="470" y="10" width="10" height="24" as="geometry" />
        </mxCell>
        <mxCell id="oswEJORsg2sLKd22r_RM-86" value="" style="line;strokeWidth=1;direction=south;html=1;perimeter=backbonePerimeter;points=[];outlineConnect=0;" parent="1" vertex="1">
          <mxGeometry x="470" y="150" width="10" height="24" as="geometry" />
        </mxCell>
        <mxCell id="oswEJORsg2sLKd22r_RM-87" value="" style="line;strokeWidth=1;direction=south;html=1;perimeter=backbonePerimeter;points=[];outlineConnect=0;" parent="1" vertex="1">
          <mxGeometry x="470" y="291" width="10" height="24" as="geometry" />
        </mxCell>
        <mxCell id="oswEJORsg2sLKd22r_RM-88" value="" style="line;strokeWidth=1;direction=south;html=1;perimeter=backbonePerimeter;points=[];outlineConnect=0;" parent="1" vertex="1">
          <mxGeometry x="470" y="425" width="10" height="24" as="geometry" />
        </mxCell>
        <mxCell id="oswEJORsg2sLKd22r_RM-89" value="" style="line;strokeWidth=1;direction=south;html=1;perimeter=backbonePerimeter;points=[];outlineConnect=0;" parent="1" vertex="1">
          <mxGeometry x="470" y="561" width="10" height="24" as="geometry" />
        </mxCell>
        <mxCell id="oswEJORsg2sLKd22r_RM-90" value="" style="line;strokeWidth=1;direction=south;html=1;perimeter=backbonePerimeter;points=[];outlineConnect=0;" parent="1" vertex="1">
          <mxGeometry x="470" y="690" width="10" height="24" as="geometry" />
        </mxCell>
        <mxCell id="oswEJORsg2sLKd22r_RM-91" value="" style="line;strokeWidth=1;direction=south;html=1;perimeter=backbonePerimeter;points=[];outlineConnect=0;" parent="1" vertex="1">
          <mxGeometry x="470" y="820" width="10" height="24" as="geometry" />
        </mxCell>
        <mxCell id="oswEJORsg2sLKd22r_RM-92" value="" style="line;strokeWidth=1;direction=south;html=1;perimeter=backbonePerimeter;points=[];outlineConnect=0;" parent="1" vertex="1">
          <mxGeometry x="470" y="960" width="10" height="24" as="geometry" />
        </mxCell>
        <mxCell id="oswEJORsg2sLKd22r_RM-96" value="" style="endArrow=none;html=1;rounded=0;entryX=0.449;entryY=0.014;entryDx=0;entryDy=0;entryPerimeter=0;exitX=0.014;exitY=0.599;exitDx=0;exitDy=0;exitPerimeter=0;jumpSize=8;" parent="1" edge="1">
          <mxGeometry width="50" height="50" relative="1" as="geometry">
            <mxPoint x="200.00000000000003" y="203" as="sourcePoint" />
            <mxPoint x="245" y="175" as="targetPoint" />
          </mxGeometry>
        </mxCell>
        <mxCell id="oswEJORsg2sLKd22r_RM-97" value="" style="endArrow=none;html=1;rounded=0;entryX=0.449;entryY=0.014;entryDx=0;entryDy=0;entryPerimeter=0;exitX=0.014;exitY=0.599;exitDx=0;exitDy=0;exitPerimeter=0;jumpSize=8;" parent="1" edge="1">
          <mxGeometry width="50" height="50" relative="1" as="geometry">
            <mxPoint x="200.00000000000003" y="-1.9999999999999858" as="sourcePoint" />
            <mxPoint x="245" y="-29.999999999999986" as="targetPoint" />
          </mxGeometry>
        </mxCell>
        <mxCell id="oswEJORsg2sLKd22r_RM-98" value="" style="endArrow=none;html=1;rounded=0;entryX=0.449;entryY=0.014;entryDx=0;entryDy=0;entryPerimeter=0;exitX=0.014;exitY=0.599;exitDx=0;exitDy=0;exitPerimeter=0;jumpSize=8;" parent="1" edge="1">
          <mxGeometry width="50" height="50" relative="1" as="geometry">
            <mxPoint x="200.00000000000003" y="343" as="sourcePoint" />
            <mxPoint x="245" y="315" as="targetPoint" />
          </mxGeometry>
        </mxCell>
        <mxCell id="oswEJORsg2sLKd22r_RM-99" value="" style="endArrow=none;html=1;rounded=0;entryX=0.449;entryY=0.014;entryDx=0;entryDy=0;entryPerimeter=0;exitX=0.014;exitY=0.599;exitDx=0;exitDy=0;exitPerimeter=0;jumpSize=8;" parent="1" edge="1">
          <mxGeometry width="50" height="50" relative="1" as="geometry">
            <mxPoint x="200.00000000000003" y="438" as="sourcePoint" />
            <mxPoint x="245" y="410" as="targetPoint" />
          </mxGeometry>
        </mxCell>
        <mxCell id="oswEJORsg2sLKd22r_RM-101" value="" style="shape=waypoint;sketch=0;fillStyle=solid;size=6;pointerEvents=1;points=[];fillColor=none;resizable=0;rotatable=0;perimeter=centerPerimeter;snapToPoint=1;" parent="1" vertex="1">
          <mxGeometry x="610" y="230" width="20" height="20" as="geometry" />
        </mxCell>
        <mxCell id="oswEJORsg2sLKd22r_RM-103" value="" style="endArrow=none;html=1;rounded=0;" parent="1" edge="1">
          <mxGeometry width="50" height="50" relative="1" as="geometry">
            <mxPoint x="600" y="250" as="sourcePoint" />
            <mxPoint x="630" y="220" as="targetPoint" />
          </mxGeometry>
        </mxCell>
        <mxCell id="oswEJORsg2sLKd22r_RM-104" value="" style="shape=waypoint;sketch=0;fillStyle=solid;size=6;pointerEvents=1;points=[];fillColor=none;resizable=0;rotatable=0;perimeter=centerPerimeter;snapToPoint=1;" parent="1" vertex="1">
          <mxGeometry x="610" y="90" width="20" height="20" as="geometry" />
        </mxCell>
        <mxCell id="oswEJORsg2sLKd22r_RM-105" value="" style="endArrow=none;html=1;rounded=0;" parent="1" edge="1">
          <mxGeometry width="50" height="50" relative="1" as="geometry">
            <mxPoint x="600" y="110" as="sourcePoint" />
            <mxPoint x="630" y="80" as="targetPoint" />
          </mxGeometry>
        </mxCell>
        <mxCell id="oswEJORsg2sLKd22r_RM-106" value="" style="shape=waypoint;sketch=0;fillStyle=solid;size=6;pointerEvents=1;points=[];fillColor=none;resizable=0;rotatable=0;perimeter=centerPerimeter;snapToPoint=1;" parent="1" vertex="1">
          <mxGeometry x="610" y="370" width="20" height="20" as="geometry" />
        </mxCell>
        <mxCell id="oswEJORsg2sLKd22r_RM-107" value="" style="endArrow=none;html=1;rounded=0;" parent="1" edge="1">
          <mxGeometry width="50" height="50" relative="1" as="geometry">
            <mxPoint x="600" y="390" as="sourcePoint" />
            <mxPoint x="630" y="360" as="targetPoint" />
          </mxGeometry>
        </mxCell>
        <mxCell id="oswEJORsg2sLKd22r_RM-108" value="" style="shape=waypoint;sketch=0;fillStyle=solid;size=6;pointerEvents=1;points=[];fillColor=none;resizable=0;rotatable=0;perimeter=centerPerimeter;snapToPoint=1;" parent="1" vertex="1">
          <mxGeometry x="610" y="505" width="20" height="20" as="geometry" />
        </mxCell>
        <mxCell id="oswEJORsg2sLKd22r_RM-109" value="" style="endArrow=none;html=1;rounded=0;" parent="1" edge="1">
          <mxGeometry width="50" height="50" relative="1" as="geometry">
            <mxPoint x="600" y="525" as="sourcePoint" />
            <mxPoint x="630" y="495" as="targetPoint" />
          </mxGeometry>
        </mxCell>
        <mxCell id="oswEJORsg2sLKd22r_RM-110" value="" style="shape=waypoint;sketch=0;fillStyle=solid;size=6;pointerEvents=1;points=[];fillColor=none;resizable=0;rotatable=0;perimeter=centerPerimeter;snapToPoint=1;" parent="1" vertex="1">
          <mxGeometry x="610" y="770" width="20" height="20" as="geometry" />
        </mxCell>
        <mxCell id="oswEJORsg2sLKd22r_RM-111" value="" style="endArrow=none;html=1;rounded=0;" parent="1" edge="1">
          <mxGeometry width="50" height="50" relative="1" as="geometry">
            <mxPoint x="600" y="790" as="sourcePoint" />
            <mxPoint x="630" y="760" as="targetPoint" />
          </mxGeometry>
        </mxCell>
        <mxCell id="oswEJORsg2sLKd22r_RM-112" value="" style="shape=waypoint;sketch=0;fillStyle=solid;size=6;pointerEvents=1;points=[];fillColor=none;resizable=0;rotatable=0;perimeter=centerPerimeter;snapToPoint=1;" parent="1" vertex="1">
          <mxGeometry x="610" y="1040" width="20" height="20" as="geometry" />
        </mxCell>
        <mxCell id="oswEJORsg2sLKd22r_RM-113" value="" style="endArrow=none;html=1;rounded=0;" parent="1" edge="1">
          <mxGeometry width="50" height="50" relative="1" as="geometry">
            <mxPoint x="600" y="1060" as="sourcePoint" />
            <mxPoint x="630" y="1030" as="targetPoint" />
          </mxGeometry>
        </mxCell>
        <mxCell id="oswEJORsg2sLKd22r_RM-116" value="D3&amp;nbsp; &amp;nbsp; &amp;nbsp;Szerelvény" style="html=1;dashed=0;whiteSpace=wrap;shape=mxgraph.dfd.dataStoreID;align=left;spacingLeft=3;points=[[0,0],[0.5,0],[1,0],[0,0.5],[1,0.5],[0,1],[0.5,1],[1,1]];" parent="1" vertex="1">
          <mxGeometry x="740.9999999999999" y="855" width="100" height="30" as="geometry" />
        </mxCell>
        <mxCell id="oswEJORsg2sLKd22r_RM-118" value="D2&amp;nbsp; &amp;nbsp; &amp;nbsp;Tagok" style="html=1;dashed=0;whiteSpace=wrap;shape=mxgraph.dfd.dataStoreID;align=left;spacingLeft=3;points=[[0,0],[0.5,0],[1,0],[0,0.5],[1,0.5],[0,1],[0.5,1],[1,1]];" parent="1" vertex="1">
          <mxGeometry x="740.9999999999999" y="817" width="100" height="30" as="geometry" />
        </mxCell>
        <mxCell id="oswEJORsg2sLKd22r_RM-119" style="edgeStyle=orthogonalEdgeStyle;rounded=0;orthogonalLoop=1;jettySize=auto;html=1;exitX=0;exitY=0.5;exitDx=0;exitDy=0;entryX=0.997;entryY=0.609;entryDx=0;entryDy=0;entryPerimeter=0;startArrow=classic;startFill=1;" parent="1" source="oswEJORsg2sLKd22r_RM-118" target="oswEJORsg2sLKd22r_RM-12" edge="1">
          <mxGeometry relative="1" as="geometry">
            <Array as="points">
              <mxPoint x="700" y="832" />
              <mxPoint x="700" y="881" />
            </Array>
          </mxGeometry>
        </mxCell>
        <mxCell id="xmjtnQLuZ0wsoHKwBJXM-2" value="" style="endArrow=none;html=1;rounded=0;entryX=0.449;entryY=0.014;entryDx=0;entryDy=0;entryPerimeter=0;exitX=0.014;exitY=0.599;exitDx=0;exitDy=0;exitPerimeter=0;jumpSize=8;" parent="1" edge="1">
          <mxGeometry width="50" height="50" relative="1" as="geometry">
            <mxPoint x="180.00000000000003" y="73.00000000000001" as="sourcePoint" />
            <mxPoint x="225" y="45.000000000000014" as="targetPoint" />
          </mxGeometry>
        </mxCell>
        <mxCell id="xmjtnQLuZ0wsoHKwBJXM-3" value="" style="endArrow=none;html=1;rounded=0;entryX=0.449;entryY=0.014;entryDx=0;entryDy=0;entryPerimeter=0;exitX=0.014;exitY=0.599;exitDx=0;exitDy=0;exitPerimeter=0;jumpSize=8;" parent="1" edge="1">
          <mxGeometry width="50" height="50" relative="1" as="geometry">
            <mxPoint x="200.00000000000003" y="502.99999999999994" as="sourcePoint" />
            <mxPoint x="245" y="474.99999999999994" as="targetPoint" />
          </mxGeometry>
        </mxCell>
        <mxCell id="xmjtnQLuZ0wsoHKwBJXM-4" value="" style="endArrow=none;html=1;rounded=0;entryX=0.449;entryY=0.014;entryDx=0;entryDy=0;entryPerimeter=0;exitX=0.014;exitY=0.599;exitDx=0;exitDy=0;exitPerimeter=0;jumpSize=8;" parent="1" edge="1">
          <mxGeometry width="50" height="50" relative="1" as="geometry">
            <mxPoint x="200.00000000000003" y="613" as="sourcePoint" />
            <mxPoint x="245" y="585" as="targetPoint" />
          </mxGeometry>
        </mxCell>
        <mxCell id="xmjtnQLuZ0wsoHKwBJXM-5" value="" style="endArrow=none;html=1;rounded=0;entryX=0.449;entryY=0.014;entryDx=0;entryDy=0;entryPerimeter=0;exitX=0.014;exitY=0.599;exitDx=0;exitDy=0;exitPerimeter=0;jumpSize=8;" parent="1" edge="1">
          <mxGeometry width="50" height="50" relative="1" as="geometry">
            <mxPoint x="200.00000000000003" y="769" as="sourcePoint" />
            <mxPoint x="245" y="741" as="targetPoint" />
          </mxGeometry>
        </mxCell>
        <mxCell id="xmjtnQLuZ0wsoHKwBJXM-6" value="" style="endArrow=none;html=1;rounded=0;entryX=0.449;entryY=0.014;entryDx=0;entryDy=0;entryPerimeter=0;exitX=0.014;exitY=0.599;exitDx=0;exitDy=0;exitPerimeter=0;jumpSize=8;" parent="1" edge="1">
          <mxGeometry width="50" height="50" relative="1" as="geometry">
            <mxPoint x="200.00000000000003" y="872" as="sourcePoint" />
            <mxPoint x="245" y="844" as="targetPoint" />
          </mxGeometry>
        </mxCell>
        <mxCell id="xmjtnQLuZ0wsoHKwBJXM-11" style="edgeStyle=orthogonalEdgeStyle;rounded=0;orthogonalLoop=1;jettySize=auto;html=1;exitX=0;exitY=0.5;exitDx=0;exitDy=0;entryX=0.942;entryY=0.793;entryDx=0;entryDy=0;entryPerimeter=0;" parent="1" source="oswEJORsg2sLKd22r_RM-8" target="oswEJORsg2sLKd22r_RM-19" edge="1">
          <mxGeometry relative="1" as="geometry">
            <Array as="points">
              <mxPoint x="450" y="460" />
              <mxPoint x="350" y="460" />
              <mxPoint x="350" y="450" />
            </Array>
          </mxGeometry>
        </mxCell>
        <mxCell id="xmjtnQLuZ0wsoHKwBJXM-12" value="Menetrend" style="edgeLabel;html=1;align=center;verticalAlign=middle;resizable=0;points=[];" parent="xmjtnQLuZ0wsoHKwBJXM-11" vertex="1" connectable="0">
          <mxGeometry x="0.0025" y="1" relative="1" as="geometry">
            <mxPoint as="offset" />
          </mxGeometry>
        </mxCell>
        <mxCell id="hf9hc3oFMKBgTjrXvcez-21" value="" style="edgeStyle=orthogonalEdgeStyle;rounded=0;orthogonalLoop=1;jettySize=auto;html=1;" edge="1" parent="1" source="hf9hc3oFMKBgTjrXvcez-1" target="oswEJORsg2sLKd22r_RM-42">
          <mxGeometry relative="1" as="geometry" />
        </mxCell>
        <mxCell id="hf9hc3oFMKBgTjrXvcez-1" value="D4&amp;nbsp; &amp;nbsp; &amp;nbsp;Járat" style="html=1;dashed=0;whiteSpace=wrap;shape=mxgraph.dfd.dataStoreID;align=left;spacingLeft=3;points=[[0,0],[0.5,0],[1,0],[0,0.5],[1,0.5],[0,1],[0.5,1],[1,1]];" vertex="1" parent="1">
          <mxGeometry x="729.9999999999999" y="34" width="100" height="30" as="geometry" />
        </mxCell>
        <mxCell id="hf9hc3oFMKBgTjrXvcez-5" value="" style="edgeStyle=orthogonalEdgeStyle;rounded=0;orthogonalLoop=1;jettySize=auto;html=1;entryX=0.993;entryY=0.866;entryDx=0;entryDy=0;entryPerimeter=0;endArrow=classic;endFill=1;startArrow=classic;startFill=1;" edge="1" parent="1" source="hf9hc3oFMKBgTjrXvcez-4" target="oswEJORsg2sLKd22r_RM-12">
          <mxGeometry relative="1" as="geometry" />
        </mxCell>
        <mxCell id="hf9hc3oFMKBgTjrXvcez-4" value="D6&amp;nbsp; &amp;nbsp; &amp;nbsp;Vásárlás" style="html=1;dashed=0;whiteSpace=wrap;shape=mxgraph.dfd.dataStoreID;align=left;spacingLeft=3;points=[[0,0],[0.5,0],[1,0],[0,0.5],[1,0.5],[0,1],[0.5,1],[1,1]];" vertex="1" parent="1">
          <mxGeometry x="740.9999999999999" y="895" width="100" height="30" as="geometry" />
        </mxCell>
        <mxCell id="hf9hc3oFMKBgTjrXvcez-9" value="" style="edgeStyle=orthogonalEdgeStyle;rounded=0;orthogonalLoop=1;jettySize=auto;html=1;entryX=1.004;entryY=0.949;entryDx=0;entryDy=0;entryPerimeter=0;startArrow=classic;startFill=1;" edge="1" parent="1" source="hf9hc3oFMKBgTjrXvcez-6" target="oswEJORsg2sLKd22r_RM-12">
          <mxGeometry relative="1" as="geometry" />
        </mxCell>
        <mxCell id="hf9hc3oFMKBgTjrXvcez-6" value="D7&amp;nbsp; &amp;nbsp; &amp;nbsp;Admin" style="html=1;dashed=0;whiteSpace=wrap;shape=mxgraph.dfd.dataStoreID;align=left;spacingLeft=3;points=[[0,0],[0.5,0],[1,0],[0,0.5],[1,0.5],[0,1],[0.5,1],[1,1]];" vertex="1" parent="1">
          <mxGeometry x="740.9999999999999" y="930" width="100" height="30" as="geometry" />
        </mxCell>
        <mxCell id="hf9hc3oFMKBgTjrXvcez-12" value="" style="edgeStyle=orthogonalEdgeStyle;rounded=0;orthogonalLoop=1;jettySize=auto;html=1;entryX=0.978;entryY=0.983;entryDx=0;entryDy=0;entryPerimeter=0;startArrow=classic;startFill=1;" edge="1" parent="1" source="hf9hc3oFMKBgTjrXvcez-10" target="oswEJORsg2sLKd22r_RM-12">
          <mxGeometry relative="1" as="geometry">
            <Array as="points">
              <mxPoint x="670" y="985" />
              <mxPoint x="670" y="918" />
            </Array>
          </mxGeometry>
        </mxCell>
        <mxCell id="hf9hc3oFMKBgTjrXvcez-10" value="D8&amp;nbsp; &amp;nbsp; &amp;nbsp;Kedvezmény" style="html=1;dashed=0;whiteSpace=wrap;shape=mxgraph.dfd.dataStoreID;align=left;spacingLeft=3;points=[[0,0],[0.5,0],[1,0],[0,0.5],[1,0.5],[0,1],[0.5,1],[1,1]];" vertex="1" parent="1">
          <mxGeometry x="741" y="970" width="109" height="30" as="geometry" />
        </mxCell>
        <mxCell id="hf9hc3oFMKBgTjrXvcez-13" value="" style="edgeStyle=orthogonalEdgeStyle;rounded=0;orthogonalLoop=1;jettySize=auto;html=1;entryX=0.966;entryY=0.983;entryDx=0;entryDy=0;entryPerimeter=0;startArrow=classic;startFill=1;" edge="1" parent="1" source="hf9hc3oFMKBgTjrXvcez-11" target="oswEJORsg2sLKd22r_RM-12">
          <mxGeometry relative="1" as="geometry">
            <Array as="points">
              <mxPoint x="660" y="1020" />
              <mxPoint x="660" y="930" />
              <mxPoint x="624" y="930" />
            </Array>
          </mxGeometry>
        </mxCell>
        <mxCell id="hf9hc3oFMKBgTjrXvcez-11" value="D9&amp;nbsp; &amp;nbsp; &amp;nbsp;Megáll" style="html=1;dashed=0;whiteSpace=wrap;shape=mxgraph.dfd.dataStoreID;align=left;spacingLeft=3;points=[[0,0],[0.5,0],[1,0],[0,0.5],[1,0.5],[0,1],[0.5,1],[1,1]];" vertex="1" parent="1">
          <mxGeometry x="740.9999999999999" y="1005" width="100" height="30" as="geometry" />
        </mxCell>
        <mxCell id="hf9hc3oFMKBgTjrXvcez-16" value="" style="edgeStyle=orthogonalEdgeStyle;rounded=0;orthogonalLoop=1;jettySize=auto;html=1;entryX=0;entryY=1;entryDx=0;entryDy=0;" edge="1" parent="1" source="hf9hc3oFMKBgTjrXvcez-14" target="oswEJORsg2sLKd22r_RM-42">
          <mxGeometry relative="1" as="geometry" />
        </mxCell>
        <mxCell id="hf9hc3oFMKBgTjrXvcez-18" value="Állomás lekérdezése" style="edgeLabel;html=1;align=center;verticalAlign=middle;resizable=0;points=[];" vertex="1" connectable="0" parent="hf9hc3oFMKBgTjrXvcez-16">
          <mxGeometry x="-0.5416" y="2" relative="1" as="geometry">
            <mxPoint x="3" y="2" as="offset" />
          </mxGeometry>
        </mxCell>
        <mxCell id="hf9hc3oFMKBgTjrXvcez-14" value="Admin" style="shape=ellipse;html=1;dashed=0;whiteSpace=wrap;perimeter=ellipsePerimeter;" vertex="1" parent="1">
          <mxGeometry x="170" y="110" width="100" height="50" as="geometry" />
        </mxCell>
        <mxCell id="hf9hc3oFMKBgTjrXvcez-15" value="" style="endArrow=none;html=1;rounded=0;entryX=0.449;entryY=0.014;entryDx=0;entryDy=0;entryPerimeter=0;exitX=0.014;exitY=0.599;exitDx=0;exitDy=0;exitPerimeter=0;jumpSize=8;" edge="1" parent="1">
          <mxGeometry width="50" height="50" relative="1" as="geometry">
            <mxPoint x="170" y="138" as="sourcePoint" />
            <mxPoint x="215" y="110.00000000000001" as="targetPoint" />
          </mxGeometry>
        </mxCell>
        <mxCell id="hf9hc3oFMKBgTjrXvcez-22" value="" style="edgeStyle=orthogonalEdgeStyle;rounded=0;orthogonalLoop=1;jettySize=auto;html=1;" edge="1" parent="1" source="hf9hc3oFMKBgTjrXvcez-20">
          <mxGeometry relative="1" as="geometry">
            <mxPoint x="630" y="80" as="targetPoint" />
          </mxGeometry>
        </mxCell>
        <mxCell id="hf9hc3oFMKBgTjrXvcez-20" value="D9&amp;nbsp; &amp;nbsp; &amp;nbsp;Megáll" style="html=1;dashed=0;whiteSpace=wrap;shape=mxgraph.dfd.dataStoreID;align=left;spacingLeft=3;points=[[0,0],[0.5,0],[1,0],[0,0.5],[1,0.5],[0,1],[0.5,1],[1,1]];" vertex="1" parent="1">
          <mxGeometry x="729.9999999999999" y="70" width="100" height="30" as="geometry" />
        </mxCell>
        <mxCell id="hf9hc3oFMKBgTjrXvcez-26" value="" style="edgeStyle=orthogonalEdgeStyle;rounded=0;orthogonalLoop=1;jettySize=auto;html=1;entryX=1.004;entryY=0.635;entryDx=0;entryDy=0;entryPerimeter=0;" edge="1" parent="1" source="hf9hc3oFMKBgTjrXvcez-25" target="oswEJORsg2sLKd22r_RM-10">
          <mxGeometry relative="1" as="geometry" />
        </mxCell>
        <mxCell id="hf9hc3oFMKBgTjrXvcez-25" value="D7&amp;nbsp; &amp;nbsp; &amp;nbsp;Admin" style="html=1;dashed=0;whiteSpace=wrap;shape=mxgraph.dfd.dataStoreID;align=left;spacingLeft=3;points=[[0,0],[0.5,0],[1,0],[0,0.5],[1,0.5],[0,1],[0.5,1],[1,1]];" vertex="1" parent="1">
          <mxGeometry x="739.9999999999999" y="365" width="100" height="30" as="geometry" />
        </mxCell>
        <mxCell id="hf9hc3oFMKBgTjrXvcez-29" value="" style="edgeStyle=orthogonalEdgeStyle;rounded=0;orthogonalLoop=1;jettySize=auto;html=1;entryX=0.161;entryY=0.975;entryDx=0;entryDy=0;entryPerimeter=0;" edge="1" parent="1" source="hf9hc3oFMKBgTjrXvcez-27" target="oswEJORsg2sLKd22r_RM-8">
          <mxGeometry relative="1" as="geometry" />
        </mxCell>
        <mxCell id="hf9hc3oFMKBgTjrXvcez-27" value="Admin" style="shape=ellipse;html=1;dashed=0;whiteSpace=wrap;perimeter=ellipsePerimeter;" vertex="1" parent="1">
          <mxGeometry x="200" y="530" width="100" height="50" as="geometry" />
        </mxCell>
        <mxCell id="hf9hc3oFMKBgTjrXvcez-28" value="" style="endArrow=none;html=1;rounded=0;entryX=0.449;entryY=0.014;entryDx=0;entryDy=0;entryPerimeter=0;exitX=0.014;exitY=0.599;exitDx=0;exitDy=0;exitPerimeter=0;jumpSize=8;" edge="1" parent="1">
          <mxGeometry width="50" height="50" relative="1" as="geometry">
            <mxPoint x="200.00000000000003" y="558" as="sourcePoint" />
            <mxPoint x="245" y="530" as="targetPoint" />
          </mxGeometry>
        </mxCell>
        <mxCell id="hf9hc3oFMKBgTjrXvcez-34" value="" style="edgeStyle=orthogonalEdgeStyle;rounded=0;orthogonalLoop=1;jettySize=auto;html=1;entryX=1.008;entryY=0.333;entryDx=0;entryDy=0;entryPerimeter=0;" edge="1" parent="1" source="hf9hc3oFMKBgTjrXvcez-31" target="oswEJORsg2sLKd22r_RM-8">
          <mxGeometry relative="1" as="geometry" />
        </mxCell>
        <mxCell id="hf9hc3oFMKBgTjrXvcez-31" value="D1&amp;nbsp; &amp;nbsp; &amp;nbsp;Állomások" style="html=1;dashed=0;whiteSpace=wrap;shape=mxgraph.dfd.dataStoreID;align=left;spacingLeft=3;points=[[0,0],[0.5,0],[1,0],[0,0.5],[1,0.5],[0,1],[0.5,1],[1,1]];" vertex="1" parent="1">
          <mxGeometry x="740" y="449" width="100" height="30" as="geometry" />
        </mxCell>
        <mxCell id="hf9hc3oFMKBgTjrXvcez-33" value="" style="edgeStyle=orthogonalEdgeStyle;rounded=0;orthogonalLoop=1;jettySize=auto;html=1;" edge="1" parent="1" source="hf9hc3oFMKBgTjrXvcez-32">
          <mxGeometry relative="1" as="geometry">
            <mxPoint x="630" y="510" as="targetPoint" />
            <Array as="points">
              <mxPoint x="685" y="540" />
              <mxPoint x="685" y="510" />
              <mxPoint x="630" y="510" />
            </Array>
          </mxGeometry>
        </mxCell>
        <mxCell id="hf9hc3oFMKBgTjrXvcez-32" value="D9&amp;nbsp; &amp;nbsp; &amp;nbsp;Megáll" style="html=1;dashed=0;whiteSpace=wrap;shape=mxgraph.dfd.dataStoreID;align=left;spacingLeft=3;points=[[0,0],[0.5,0],[1,0],[0,0.5],[1,0.5],[0,1],[0.5,1],[1,1]];" vertex="1" parent="1">
          <mxGeometry x="740.9999999999999" y="525" width="100" height="30" as="geometry" />
        </mxCell>
        <mxCell id="hf9hc3oFMKBgTjrXvcez-38" value="" style="edgeStyle=orthogonalEdgeStyle;rounded=0;orthogonalLoop=1;jettySize=auto;html=1;" edge="1" parent="1" source="hf9hc3oFMKBgTjrXvcez-35" target="oswEJORsg2sLKd22r_RM-11">
          <mxGeometry relative="1" as="geometry" />
        </mxCell>
        <mxCell id="hf9hc3oFMKBgTjrXvcez-35" value="D4&amp;nbsp; &amp;nbsp; &amp;nbsp;Járat" style="html=1;dashed=0;whiteSpace=wrap;shape=mxgraph.dfd.dataStoreID;align=left;spacingLeft=3;points=[[0,0],[0.5,0],[1,0],[0,0.5],[1,0.5],[0,1],[0.5,1],[1,1]];" vertex="1" parent="1">
          <mxGeometry x="740.9999999999999" y="595" width="100" height="30" as="geometry" />
        </mxCell>
        <mxCell id="hf9hc3oFMKBgTjrXvcez-37" value="" style="edgeStyle=orthogonalEdgeStyle;rounded=0;orthogonalLoop=1;jettySize=auto;html=1;entryX=1.001;entryY=0.673;entryDx=0;entryDy=0;entryPerimeter=0;startArrow=classic;startFill=1;endArrow=none;" edge="1" parent="1" source="hf9hc3oFMKBgTjrXvcez-36" target="oswEJORsg2sLKd22r_RM-11">
          <mxGeometry relative="1" as="geometry">
            <Array as="points">
              <mxPoint x="700" y="645" />
              <mxPoint x="700" y="627" />
            </Array>
          </mxGeometry>
        </mxCell>
        <mxCell id="hf9hc3oFMKBgTjrXvcez-36" value="D6&amp;nbsp; &amp;nbsp; &amp;nbsp;Vásárlás" style="html=1;dashed=0;whiteSpace=wrap;shape=mxgraph.dfd.dataStoreID;align=left;spacingLeft=3;points=[[0,0],[0.5,0],[1,0],[0,0.5],[1,0.5],[0,1],[0.5,1],[1,1]];" vertex="1" parent="1">
          <mxGeometry x="739.9999999999999" y="630" width="100" height="30" as="geometry" />
        </mxCell>
        <mxCell id="hf9hc3oFMKBgTjrXvcez-41" value="" style="edgeStyle=orthogonalEdgeStyle;rounded=0;orthogonalLoop=1;jettySize=auto;html=1;" edge="1" parent="1" source="hf9hc3oFMKBgTjrXvcez-39" target="oswEJORsg2sLKd22r_RM-47">
          <mxGeometry relative="1" as="geometry" />
        </mxCell>
        <mxCell id="hf9hc3oFMKBgTjrXvcez-39" value="D6&amp;nbsp; &amp;nbsp; &amp;nbsp;Vásárlás" style="html=1;dashed=0;whiteSpace=wrap;shape=mxgraph.dfd.dataStoreID;align=left;spacingLeft=3;points=[[0,0],[0.5,0],[1,0],[0,0.5],[1,0.5],[0,1],[0.5,1],[1,1]];" vertex="1" parent="1">
          <mxGeometry x="745.4999999999999" y="705" width="100" height="30" as="geometry" />
        </mxCell>
        <mxCell id="oswEJORsg2sLKd22r_RM-69" value="D5&amp;nbsp; &amp;nbsp; Jegyek" style="html=1;dashed=0;whiteSpace=wrap;shape=mxgraph.dfd.dataStoreID;align=left;spacingLeft=3;points=[[0,0],[0.5,0],[1,0],[0,0.5],[1,0.5],[0,1],[0.5,1],[1,1]];" parent="1" vertex="1">
          <mxGeometry x="740" y="670" width="100" height="30" as="geometry" />
        </mxCell>
        <mxCell id="hf9hc3oFMKBgTjrXvcez-46" value="" style="edgeStyle=orthogonalEdgeStyle;rounded=0;orthogonalLoop=1;jettySize=auto;html=1;entryX=0.843;entryY=0.99;entryDx=0;entryDy=0;entryPerimeter=0;" edge="1" parent="1" source="hf9hc3oFMKBgTjrXvcez-42" target="oswEJORsg2sLKd22r_RM-27">
          <mxGeometry relative="1" as="geometry" />
        </mxCell>
        <mxCell id="hf9hc3oFMKBgTjrXvcez-42" value="D2&amp;nbsp; &amp;nbsp; &amp;nbsp;Tagok" style="html=1;dashed=0;whiteSpace=wrap;shape=mxgraph.dfd.dataStoreID;align=left;spacingLeft=3;points=[[0,0],[0.5,0],[1,0],[0,0.5],[1,0.5],[0,1],[0.5,1],[1,1]];" vertex="1" parent="1">
          <mxGeometry x="740.9999999999999" y="1080" width="100" height="30" as="geometry" />
        </mxCell>
        <mxCell id="hf9hc3oFMKBgTjrXvcez-47" value="" style="edgeStyle=orthogonalEdgeStyle;rounded=0;orthogonalLoop=1;jettySize=auto;html=1;entryX=0.75;entryY=1;entryDx=0;entryDy=0;" edge="1" parent="1" source="hf9hc3oFMKBgTjrXvcez-43" target="oswEJORsg2sLKd22r_RM-27">
          <mxGeometry relative="1" as="geometry" />
        </mxCell>
        <mxCell id="hf9hc3oFMKBgTjrXvcez-43" value="D3&amp;nbsp; &amp;nbsp; &amp;nbsp;Szerelvény" style="html=1;dashed=0;whiteSpace=wrap;shape=mxgraph.dfd.dataStoreID;align=left;spacingLeft=3;points=[[0,0],[0.5,0],[1,0],[0,0.5],[1,0.5],[0,1],[0.5,1],[1,1]];" vertex="1" parent="1">
          <mxGeometry x="740.9999999999999" y="1120" width="100" height="30" as="geometry" />
        </mxCell>
        <mxCell id="hf9hc3oFMKBgTjrXvcez-48" value="" style="edgeStyle=orthogonalEdgeStyle;rounded=0;orthogonalLoop=1;jettySize=auto;html=1;entryX=0.633;entryY=1.004;entryDx=0;entryDy=0;entryPerimeter=0;" edge="1" parent="1" source="hf9hc3oFMKBgTjrXvcez-44" target="oswEJORsg2sLKd22r_RM-27">
          <mxGeometry relative="1" as="geometry" />
        </mxCell>
        <mxCell id="hf9hc3oFMKBgTjrXvcez-44" value="D4&amp;nbsp; &amp;nbsp; &amp;nbsp;Járat" style="html=1;dashed=0;whiteSpace=wrap;shape=mxgraph.dfd.dataStoreID;align=left;spacingLeft=3;points=[[0,0],[0.5,0],[1,0],[0,0.5],[1,0.5],[0,1],[0.5,1],[1,1]];" vertex="1" parent="1">
          <mxGeometry x="740.9999999999999" y="1160" width="100" height="30" as="geometry" />
        </mxCell>
        <mxCell id="hf9hc3oFMKBgTjrXvcez-49" value="" style="edgeStyle=orthogonalEdgeStyle;rounded=0;orthogonalLoop=1;jettySize=auto;html=1;" edge="1" parent="1" source="hf9hc3oFMKBgTjrXvcez-45" target="oswEJORsg2sLKd22r_RM-27">
          <mxGeometry relative="1" as="geometry" />
        </mxCell>
        <mxCell id="hf9hc3oFMKBgTjrXvcez-45" value="D6&amp;nbsp; &amp;nbsp; &amp;nbsp;Vásárlás" style="html=1;dashed=0;whiteSpace=wrap;shape=mxgraph.dfd.dataStoreID;align=left;spacingLeft=3;points=[[0,0],[0.5,0],[1,0],[0,0.5],[1,0.5],[0,1],[0.5,1],[1,1]];" vertex="1" parent="1">
          <mxGeometry x="744.4999999999999" y="1200" width="100" height="30" as="geometry" />
        </mxCell>
        <mxCell id="hf9hc3oFMKBgTjrXvcez-50" value="" style="endArrow=none;html=1;rounded=0;entryX=0.449;entryY=0.014;entryDx=0;entryDy=0;entryPerimeter=0;exitX=0.014;exitY=0.599;exitDx=0;exitDy=0;exitPerimeter=0;jumpSize=8;" edge="1" parent="1">
          <mxGeometry width="50" height="50" relative="1" as="geometry">
            <mxPoint x="197.5" y="1013" as="sourcePoint" />
            <mxPoint x="242.5" y="985" as="targetPoint" />
          </mxGeometry>
        </mxCell>
      </root>
    </mxGraphModel>
  </diagram>
</mxfile>
